<?xml version="1.0" standalone="no"?><!DOCTYPE svg PUBLIC "-//W3C//DTD SVG 1.1//EN" "http://www.w3.org/Graphics/SVG/1.1/DTD/svg11.dtd"><svg t="1603792601124" class="icon" viewBox="0 0 1024 1024" version="1.1" xmlns="http://www.w3.org/2000/svg" p-id="2438" xmlns:xlink="http://www.w3.org/1999/xlink" width="16" height="16"><defs><style type="text/css"></style></defs><path d="M825.825666 1023.999699H198.324674A107.640439 107.640439 0 0 1 90.352941 916.901377v-454.776336a107.640439 107.640439 0 0 1 107.971733-107.098322h45.357163V275.69686a268.408392 268.408392 0 1 1 536.636078 0v79.329859h45.357163A107.640439 107.640439 0 0 1 933.646811 462.125041v454.776336A107.550086 107.550086 0 0 1 825.825666 1023.999699z m-352.376367-326.20414v89.690327a38.279518 38.279518 0 1 0 76.559036 0v-89.238562a78.817859 78.817859 0 0 0 38.761401-68.09598 76.679507 76.679507 0 1 0-153.328896 0 78.817859 78.817859 0 0 0 37.887989 67.644215z m191.999944-422.098699a153.389131 153.389131 0 1 0-306.657793 0v79.329859h306.537322V275.69686z" fill="#c8c8c8" p-id="2439"></path></svg>