<?xml version="1.0" standalone="no"?><!DOCTYPE svg PUBLIC "-//W3C//DTD SVG 1.1//EN" "http://www.w3.org/Graphics/SVG/1.1/DTD/svg11.dtd"><svg t="1603792413443" class="icon" viewBox="0 0 1024 1024" version="1.1" xmlns="http://www.w3.org/2000/svg" p-id="2304" xmlns:xlink="http://www.w3.org/1999/xlink" width="16" height="16"><defs><style type="text/css"></style></defs><path d="M511.5028096 591.28085227c153.82229653 0 278.53903573-124.6970912 278.53903573-278.53794347 0-153.83539413-124.7167392-278.53139413-278.53903573-278.53139413-153.814656 0-278.53139413 124.6970912-278.53139413 278.53139413C232.97141547 466.58376107 357.6870624 591.28085227 511.5028096 591.28085227L511.5028096 591.28085227zM734.72218453 566.94526613c-59.5569664 52.31032107-137.63168213 84.0366336-223.1276864 84.0366336-85.4905472 0-163.56307947-31.72631253-223.12113813-84.0366336C137.13537813 647.06550293 34.01667627 806.11293653 34.01667627 989.27001067l955.1611008 0C989.17886827 806.11293653 886.05470827 647.06550293 734.72218453 566.94526613L734.72218453 566.94526613zM734.5868352 566.94526613" fill="#c8c8c8" p-id="2305"></path></svg>